<svg width="20" height="33" viewBox="0 0 20 33" fill="none" xmlns="http://www.w3.org/2000/svg">
<path d="M16.4849 11.2035C17.5777 9.01273 18.2409 6.0194 18.0112 2L10.0811 7.34211M16.4849 11.2035L10.0811 7.34211M16.4849 11.2035C15.8397 12.4968 15.0448 13.5105 14.1954 14.2903M10.0811 7.34211L1.22171 2C0.987957 3.54274 0.948113 4.93812 1.05969 6.19737M1.05969 6.19737C1.59362 12.2235 5.59518 15.1322 8.40797 16.155C9.19215 16.4402 10.0484 16.4824 10.8464 16.2386C11.9173 15.9114 13.1015 15.2947 14.1954 14.2903M1.05969 6.19737L14.1954 14.2903" stroke="black" stroke-width="2"/>
<path d="M16.4849 21.7965C17.5777 23.9873 18.2409 26.9806 18.0112 31L10.0811 25.6579M16.4849 21.7965L10.0811 25.6579M16.4849 21.7965C15.8397 20.5032 15.0448 19.4895 14.1954 18.7097M10.0811 25.6579L1.22171 31C0.987957 29.4573 0.948113 28.0619 1.05969 26.8026M1.05969 26.8026C1.59362 20.7765 5.59518 17.8678 8.40797 16.845C9.19215 16.5598 10.0484 16.5176 10.8464 16.7614C11.9173 17.0886 13.1015 17.7053 14.1954 18.7097M1.05969 26.8026L14.1954 18.7097" stroke="black" stroke-width="2"/>
</svg>
